Patient4_TMGait_0pt2_02_right_13_GRF.mot
version=1
nRows=45
nColumns=19
inDegrees=no
endheader
time	F1x	F1y	F1z	M1x	M1y	M1z	F2x	F2y	F2z	M2x	M2y	M2z	EC1x	EC1y	EC1z	EC2x	EC2y	EC2z
28.67	-8.318	637.2518	48.2569	-195.3083	-44.125	550.3609	14.2815	70.7311	-8.1427	30.4555	-1.6971	48.02	-0.0592	0.0182	-0.0073	-0.0462	0.0165	0.9585
28.6924	-8.9152	651.1027	49.3053	-199.0788	-45.4531	562.52	13.2706	56.6002	-6.7368	24.252	-1.8045	38.7167	-0.0592	0.0182	-0.0073	-0.0462	0.0165	0.9585
28.7149	-9.9049	668.2997	50.1476	-204.0121	-46.7554	577.4956	11.5313	42.1072	-5.1885	17.9484	-1.7924	29.0769	-0.0592	0.0182	-0.0073	-0.0462	0.0165	0.9585
28.7373	-11.2171	688.1487	50.5196	-210.0246	-47.7539	594.5804	9.2238	28.8142	-3.6376	12.2116	-1.6479	20.1674	-0.0592	0.0182	-0.0073	-0.0462	0.0165	0.9585
28.7597	-12.6518	709.6943	50.2781	-216.9094	-48.2205	612.8177	6.7269	17.8062	-2.2274	7.4905	-1.42	12.7494	-0.0592	0.0182	-0.0073	-0.0462	0.0165	0.9585
28.7821	-13.9352	731.8506	49.4618	-224.3526	-48.061	631.1446	4.4406	9.5346	-1.0675	3.9622	-1.1793	7.1497	-0.0592	0.0182	-0.0073	-0.0462	0.0165	0.9585
28.8046	-14.7902	753.8782	48.2823	-232.0817	-47.3412	648.8141	2.5934	3.8894	-0.19544	1.5688	-0.97539	3.3062	-0.0592	0.0182	-0.0073	-0.0462	0.0165	0.9585
28.827	-14.9803	775.6911	47.1068	-239.9692	-46.2911	665.6745	1.2493	0.43082	0.41228	0.11622	-0.83447	0.9261	-0.0592	0.0182	-0.0073	-0.0462	0.0165	0.9585
28.8494	-14.369	797.5105	46.3689	-247.9467	-45.2525	681.9014	0.37526	-1.4034	0.80791	-0.63889	-0.7678	-0.37447	-0.0592	0.0182	-0.0073	-0.0462	0.0165	0.9585
28.8719	-12.9455	819.2507	46.4489	-255.8422	-44.5797	697.4916	-0.10707	-2.174	1.0552	-0.93671	-0.77992	-0.9876	-0.0592	0.0182	-0.0073	-0.0462	0.0165	0.9585
28.8943	-10.8127	840.0835	47.5471	-263.2756	-44.5065	711.8755	-0.29102	-2.3691	1.2131	-0.98513	-0.86543	-1.2609	-0.0592	0.0182	-0.0073	-0.0462	0.0165	0.9585
28.9167	-8.1616	858.4105	49.5845	-269.6757	-45.0398	723.8633	-0.26726	-2.3673	1.3232	-0.94449	-1.0089	-1.4617	-0.0592	0.0182	-0.0073	-0.0462	0.0165	0.9585
28.9391	-5.2222	872.3087	52.1946	-274.4293	-45.9337	731.9875	-0.12063	-2.4275	1.4052	-0.92539	-1.1837	-1.7693	-0.0592	0.0182	-0.0073	-0.0462	0.0165	0.9585
28.9616	-2.2015	880.1116	54.8563	-277.0515	-46.7928	734.9711	0.069396	-2.6891	1.4552	-0.98962	-1.3473	-2.2698	-0.0592	0.0182	-0.0073	-0.0462	0.0165	0.9585
28.984	0.75616	880.8336	57.0916	-277.2903	-47.2386	732.0742	0.22826	-3.1687	1.4411	-1.1499	-1.4335	-2.9469	-0.0592	0.0182	-0.0073	-0.0462	0.0165	0.9585
29.0064	3.603	874.3802	58.5808	-275.1728	-47.0077	723.2666	0.27985	-3.7501	1.3029	-1.3687	-1.3481	-3.6642	-0.0592	0.0182	-0.0073	-0.0462	0.0165	0.9585
29.0289	6.3858	861.5309	59.1899	-270.9904	-45.978	709.2179	0.14367	-4.1714	0.95301	-1.5547	-0.96789	-4.1348	-0.0592	0.0182	-0.0073	-0.0462	0.0165	0.9585
29.0513	9.1859	843.636	58.9473	-265.2015	-44.1689	691.0711	-0.26392	-4.0074	0.27705	-1.5537	-0.14053	-3.8993	-0.0592	0.0182	-0.0073	-0.0462	0.0165	0.9585
29.0737	12.0531	822.152	58.007	-258.2815	-41.7246	670.0785	-1.0293	-2.6509	-0.8533	-1.1406	1.3036	-2.3113	-0.0592	0.0182	-0.0073	-0.0462	0.0165	0.9585
29.0961	14.9632	798.2724	56.5972	-250.6089	-38.8759	647.2937	-2.2271	0.67345	-2.5553	-0.021403	3.5211	1.4452	-0.0592	0.0182	-0.0073	-0.0462	0.0165	0.9585
29.1186	17.8253	772.788	54.9554	-242.4258	-35.8805	623.443	-3.8891	6.8561	-4.8936	2.1505	6.597	8.2919	-0.0592	0.0182	-0.0073	-0.0462	0.0165	0.9585
29.141	20.5341	746.1742	53.2781	-233.8717	-32.9583	598.9737	-5.9624	16.7764	-7.8202	5.732	10.4623	19.1181	-0.0592	0.0182	-0.0073	-0.0462	0.0165	0.9585
29.1634	23.031	718.7621	51.7039	-225.0415	-30.2612	574.1793	-8.2489	31.0698	-11.0879	11.0094	14.7837	34.5254	-0.0592	0.0182	-0.0073	-0.0462	0.0165	0.9585
29.1859	25.3303	690.8709	50.3133	-216.0298	-27.8664	549.314	-10.4224	49.8659	-14.1821	18.1017	18.9005	54.5272	-0.0592	0.0182	-0.0073	-0.0462	0.0165	0.9585
29.2083	27.487	662.9012	49.1256	-206.9596	-25.7838	524.6878	-12.5348	73.1177	-16.7004	27.0511	22.409	78.9085	-0.0592	0.0182	-0.0073	-0.0462	0.0165	0.9585
29.2307	29.4938	635.2027	48.1236	-197.9412	-24.0091	500.5929	-15.0062	100.8646	-18.7506	37.8936	25.5677	107.555	-0.0592	0.0182	-0.0073	-0.0462	0.0165	0.9585
29.2531	31.2204	607.831	47.2742	-188.9976	-22.5591	477.1126	-17.9466	133.0169	-20.6501	50.5878	28.7308	140.2052	-0.0592	0.0182	-0.0073	-0.0462	0.0165	0.9585
29.2756	32.4733	580.4918	46.4819	-180.0531	-21.4166	454.0594	-21.1185	169.2879	-22.8116	64.9938	32.218	176.386	-0.0592	0.0182	-0.0073	-0.0462	0.0165	0.9585
29.298	33.0734	552.6403	45.5764	-170.9639	-20.4968	431.0247	-24.2449	209.0015	-25.5222	80.8143	36.2107	215.2907	-0.0592	0.0182	-0.0073	-0.0462	0.0165	0.9585
29.3204	32.903	523.7322	44.3751	-161.5892	-19.6829	407.5734	-27.1126	250.7851	-28.7816	97.4864	40.6293	255.5126	-0.0592	0.0182	-0.0073	-0.0462	0.0165	0.9585
29.3429	31.9516	493.5566	42.7591	-151.8828	-18.8726	383.492	-29.5581	292.4795	-32.2798	114.1469	45.1048	294.9647	-0.0592	0.0182	-0.0073	-0.0462	0.0165	0.9585
29.3653	30.3531	462.5524	40.7498	-141.9827	-18.0245	359.0345	-31.4575	331.6532	-35.5001	129.8358	49.0888	331.397	-0.0592	0.0182	-0.0073	-0.0462	0.0165	0.9585
29.3877	28.3571	431.7921	38.5236	-132.2073	-17.1765	334.9293	-32.7339	366.4452	-37.9289	143.8261	52.0639	363.186	-0.0592	0.0182	-0.0073	-0.0462	0.0165	0.9585
29.4101	26.2607	402.6076	36.3317	-122.9497	-16.4083	312.1121	-33.3548	395.9219	-39.2563	155.7541	53.7295	389.6121	-0.0592	0.0182	-0.0073	-0.0462	0.0165	0.9585
29.4326	24.326	376.0881	34.3863	-114.5345	-15.7841	291.3564	-33.3058	419.9151	-39.4458	165.5449	54.0481	410.6494	-0.0592	0.0182	-0.0073	-0.0462	0.0165	0.9585
29.455	22.7151	352.7697	32.7772	-107.1243	-15.309	273.0418	-32.5571	438.7825	-38.6778	173.3195	53.1796	426.713	-0.0592	0.0182	-0.0073	-0.0462	0.0165	0.9585
29.4774	21.479	332.5762	31.475	-100.7034	-14.941	257.1074	-31.0668	453.2033	-37.2337	179.3216	51.3679	438.4605	-0.0592	0.0182	-0.0073	-0.0462	0.0165	0.9585
29.4999	20.6049	315.0026	30.3786	-95.1319	-14.6085	243.1795	-28.8128	464.0376	-35.4008	183.8683	48.8657	446.6794	-0.0592	0.0182	-0.0073	-0.0462	0.0165	0.9585
29.5223	20.0619	299.4086	29.3667	-90.2279	-14.2299	230.7876	-25.8568	472.239	-33.4236	187.3184	45.9184	452.2609	-0.0592	0.0182	-0.0073	-0.0462	0.0165	0.9585
29.5447	19.8067	285.1752	28.3332	-85.8101	-13.7386	219.4808	-22.379	478.8403	-31.5025	190.0634	42.7812	456.2326	-0.0592	0.0182	-0.0073	-0.0462	0.0165	0.9585
29.5671	19.7708	271.6939	27.1996	-81.6927	-13.0965	208.8158	-18.6669	484.8563	-29.8171	192.4882	39.7345	459.6686	-0.0592	0.0182	-0.0073	-0.0462	0.0165	0.9585
29.5896	19.856	258.3576	25.9142	-77.6825	-12.2942	198.3461	-15.0548	491.241	-28.5299	194.9564	37.0652	463.6208	-0.0592	0.0182	-0.0073	-0.0462	0.0165	0.9585
29.612	19.9217	244.586	24.4535	-73.5873	-11.3536	187.6379	-11.8783	498.9583	-27.7712	197.8416	35.0337	469.1483	-0.0592	0.0182	-0.0073	-0.0462	0.0165	0.9585
29.6344	19.7786	229.7815	22.8285	-69.2072	-10.3402	176.2376	-9.4365	509.0285	-27.6455	201.5482	33.8658	477.3226	-0.0592	0.0182	-0.0073	-0.0462	0.0165	0.9585
29.6569	19.2162	213.2907	21.0744	-64.3255	-9.3477	163.6484	-7.9421	522.4719	-28.2488	206.4856	33.7445	489.1391	-0.0592	0.0182	-0.0073	-0.0462	0.0165	0.9585
